# xmcd
#
# Track frame offsets:
#	150
#	5947
#	17985
#	35705
#	42055
#	57264
#	60989
#	65498
#	83553
#	97185
#	110126
#	123284
#	141657
#	167237
#	187372
#	198646
#	210419
#	228865
#	247158
#	255347
#	272714
#	276866
#	289709
#	307345
#	312237
#	319436
#	323021
#	325913
#
# Disc length: 4393 seconds
#
# Revision: 0
# Processed by: cddbd v1.5.1PL2 Copyright (c) Steve Scherf et al.
# Submitted via: dBpowerAMP V4.0
#
DISCID=b811271c
DTITLE=Dito Leite - As Pérolas do Dito Leite
DYEAR=1900
DGENRE=Piada
TTITLE0=Abrimento
TTITLE1=Seu Cuca é Eu
TTITLE2=Oração do Baralho
TTITLE3=Piada
TTITLE4=Cavalo Pangaré e Eguinha Pocotó
TTITLE5=Sinfonia do Peido
TTITLE6=Piada
TTITLE7=Melô do Chorão
TTITLE8=Ranquei, Chaqualhei, Guardei
TTITLE9=Piada
TTITLE10=Moradia de Caboclo
TTITLE11=Batidão Diferente
TTITLE12=Piada
TTITLE13=Sobrou Pra Mim
TTITLE14=Rancho de Caboclo
TTITLE15=Piada
TTITLE16=Abraçando a Solidão
TTITLE17=Te Amo de Mais
TTITLE18=Piada
TTITLE19=Negócio da Vizinha
TTITLE20=Ferrari do Rubinho
TTITLE21=Gaguinho
TTITLE22=Piada
TTITLE23=A Primeira Vez
TTITLE24=O Cume
TTITLE25=Encerradura
TTITLE26=Oração do Pau D´água
TTITLE27=Creio No Alcoól
EXTD=
EXTT0=
EXTT1=
EXTT2=
EXTT3=
EXTT4=
EXTT5=
EXTT6=
EXTT7=
EXTT8=
EXTT9=
EXTT10=
EXTT11=
EXTT12=
EXTT13=
EXTT14=
EXTT15=
EXTT16=
EXTT17=
EXTT18=
EXTT19=
EXTT20=
EXTT21=
EXTT22=
EXTT23=
EXTT24=
EXTT25=
EXTT26=
EXTT27=
PLAYORDER=
